<svg width="961" height="282" viewBox="0 0 961 282" fill="none" xmlns="http://www.w3.org/2000/svg">
<path d="M104.333 17.6C100.467 27.3334 87.1333 61.0667 74.6 92.6667C50.6 153.2 31 203.067 31 203.2C31 203.333 47 203.067 66.4667 202.667L101.933 202L127.133 136.8C140.867 100.933 152.467 71.3334 152.867 71.0667C153.533 70.4 169.8 111.6 209.133 212.933L235.667 281.333H271.267H306.733L294.067 250.267C287.133 233.333 261.667 170 237.4 109.6L193.267 2.60174e-05H152.2H111.267L104.333 17.6Z" fill="black"/>
<path d="M419.934 43.3334C419.534 44.0001 408.2 72.2667 394.6 106C350.733 215.067 340.333 241.067 340.333 241.867C340.333 242.267 351.667 242.667 365.533 242.667C388.333 242.667 390.867 242.4 391.667 240.267C392.2 239.067 395.533 230.133 399 220.667C402.467 211.067 405.8 202.267 406.333 200.933C407.267 198.8 410.333 198.667 445.534 198.667H483.8L491.667 220C497.8 236.533 500.334 241.6 502.334 242.133C503.8 242.4 515.934 242.533 529.267 242.4L553.4 242L513.534 142L473.667 42.0001H447.134C429.667 41.8667 420.2 42.4001 419.934 43.3334ZM458.2 159.733C451.267 159.867 440.067 159.867 433.134 159.733L420.6 159.333L433.4 124.4L446.2 89.4667L458.334 124.4L470.6 159.333L458.2 159.733Z" fill="black"/>
<path d="M567 141.467V241.333H592.467H617.933L617.533 206.8L617 172.133L626.067 171.733C631.133 171.467 635.533 171.6 635.8 171.867C636.067 172.267 645.133 188.267 655.933 207.6L675.533 242.667H702.6C717.533 242.667 729.667 242.267 729.667 241.6C729.533 241.067 719.8 224.133 707.8 204L686.067 167.333L695.4 162.4C700.6 159.733 706.733 155.6 709.133 153.2C714.467 148 720.733 136.533 723.667 126.4C726.2 117.467 726.6 99.7334 724.333 90.0001C720.6 73.4667 708.6 59.2001 691.933 51.3334C674.333 42.9334 671.4 42.6667 616.733 42.0001L567 41.6001V141.467ZM658.6 82.0001C671.4 85.8667 677.533 94.2667 677.667 108C677.667 121.2 670.467 130.933 657.8 134.8C655.133 135.6 644.6 136.533 634.467 136.933L615.933 137.733L616.733 132.533C617.267 129.733 617.667 116.667 617.667 103.6V80.0001H634.733C646.067 80.0001 654.067 80.6667 658.6 82.0001Z" fill="black"/>
<path d="M748.333 141.867V242.667H772.067H795.8L795.267 180.267L794.867 118L805.533 135.333C811.533 144.8 822.2 162.4 829.4 174.267L842.334 195.867H855H867.667L879.534 176C885.934 165.067 896.334 147.867 902.467 137.733L913.667 119.333V180.267V241.2L937 241.6L960.334 242V142V42.0001L936.067 42.2667L911.934 42.4001L883.534 92.5334L855.267 142.667L850.067 133.733C847.134 128.667 834.067 106.267 821.133 83.6001L797.4 42.6667H781.933C773.267 42.6667 762.333 42.2667 757.4 41.7334L748.333 40.9334V141.867Z" fill="black"/>
<path d="M13.6668 247.6C8.86683 259.733 3.9335 272.4 2.7335 275.6L0.333496 281.333H87.6668H175V253.333V225.333H98.7335L22.3335 225.467L13.6668 247.6Z" fill="#0083FB"/>
</svg>
